<svg width="273" height="279" viewBox="0 0 273 279" fill="none" xmlns="http://www.w3.org/2000/svg">
<path d="M7.32493 71.4254C-2.73428 66.9244 -2.34285 52.4097 7.9441 48.4656L132.23 0.812393C135.278 -0.356475 138.662 -0.260783 141.641 1.07852L265.407 56.7276C275.419 61.2297 275.055 75.6717 264.827 79.6549L141.764 127.584C138.708 128.775 135.307 128.691 132.312 127.351L7.32493 71.4254Z" fill="white"/>
<path d="M0.2057 189.413V59.9649C0.2057 53.5338 5.38094 48.3204 11.7649 48.3204C18.1489 48.3204 23.3242 53.5338 23.3242 59.9649V124.689V189.413C23.3242 195.844 18.1489 201.057 11.7649 201.057C5.38094 201.057 0.2057 195.844 0.2057 189.413Z" fill="white"/>
<path d="M2.13826 185.134C4.69708 179.242 11.5126 176.555 17.3613 179.133L135.807 233.655L136.079 233.779C141.738 236.448 144.282 243.191 141.764 248.991C139.245 254.791 132.601 257.485 126.815 255.109L126.541 254.992L8.0951 200.469C2.24636 197.891 -0.420563 191.026 2.13826 185.134Z" fill="white"/>
<path d="M42.7822 135.46L87.6572 157.36V278.514L62.6123 239.3L42.7822 249.27V135.46Z" fill="#FF8400"/>
<path d="M248.09 188.137C253.836 185.913 260.296 188.773 262.518 194.526C264.74 200.278 261.882 206.745 256.136 208.969L136.613 255.233C130.867 257.457 124.407 254.596 122.185 248.844C119.963 243.091 122.821 236.624 128.567 234.4L248.09 188.137Z" fill="white"/>
</svg>
