<svg width="543" height="212" viewBox="0 0 543 212" fill="none" xmlns="http://www.w3.org/2000/svg">
<path d="M523.314 150.13V138.563H516.145V150.13H482.585C473.462 150.13 468.737 145.405 468.737 136.282V112.496H487.472V119.013H497.41V112.496H516.145V122.271H523.314V112.496H542.049V150.13H523.314ZM468.737 153.388H487.472V156.972H523.314V153.388H542.049V186.785H485.029C474.276 186.785 468.737 181.246 468.737 170.494V153.388ZM523.314 173.345V169.598H487.472C487.554 172.286 488.694 173.345 491.545 173.345H523.314ZM497.41 137.911V130.417H487.472V135.467C487.472 136.771 488.613 137.911 489.916 137.911H497.41Z" fill="white"/>
<path d="M440.243 164.792V150.862H432.342C430.224 156.564 424.766 160.719 416.539 160.719H401.551C390.961 160.719 384.852 153.713 384.852 145.568C384.852 137.422 390.961 130.417 401.551 130.417H416.539C422.078 130.417 426.477 132.372 429.328 135.385H440.243V112.496H458.978V164.792H440.243ZM385.667 163.162H404.402V168.05C404.402 170.982 406.357 172.937 409.289 172.937H459.793V186.785H403.587C392.835 186.785 385.667 179.617 385.667 168.864V163.162ZM384.852 114.125H399.677V110.052H418.413V114.125H433.238V127.973H384.852V114.125ZM403.669 145.568C403.669 146.952 404.646 147.686 406.031 147.686H412.059C413.444 147.686 414.421 146.952 414.421 145.568C414.421 144.183 413.444 143.45 412.059 143.45H406.031C404.646 143.45 403.669 144.183 403.669 145.568Z" fill="white"/>
<path d="M292.901 170.494H348.292V112.496H367.027V186.785H292.901V170.494ZM292.901 138.318V134.082C292.901 120.642 302.513 111.682 317.013 111.682C331.512 111.682 341.124 120.642 341.124 134.082V138.318C341.124 151.759 331.512 160.719 317.013 160.719C302.513 160.719 292.901 151.759 292.901 138.318ZM317.013 144.428C320.271 144.428 322.389 142.798 322.389 139.947V132.453C322.389 129.602 320.271 127.973 317.013 127.973C313.754 127.973 311.636 129.602 311.636 132.453V139.947C311.636 142.798 313.754 144.428 317.013 144.428Z" fill="white"/>
<path d="M230.991 136.282H283.938V151.759H225.289C214.536 151.759 207.368 144.591 207.368 133.838V112.496H283.938V127.973H226.103V131.394C226.103 134.327 228.058 136.282 230.991 136.282ZM207.368 171.309V155.832H283.938V171.309H255.021V186.785H236.285V171.309H207.368Z" fill="white"/>
<path d="M122.649 170.494H151.567V159.09H140.57C129.817 159.09 122.649 151.922 122.649 141.169V112.496H199.219V159.09H170.302V170.494H199.219V186.785H122.649V170.494ZM141.384 138.726C141.384 141.658 143.339 143.613 146.272 143.613H180.484V127.973H141.384V138.726Z" fill="white"/>
<path d="M5.60072 54.3586C-2.09066 50.9331 -1.79137 39.8867 6.07414 36.885L101.104 0.618276C103.435 -0.271298 106.023 -0.19847 108.3 0.820815L202.933 43.1728C210.588 46.5992 210.309 57.5904 202.49 60.6218L108.394 97.0988C106.057 98.0047 103.457 97.9407 101.167 96.921L5.60072 54.3586Z" fill="white"/>
<path d="M0.157282 144.154V45.6366C0.157282 40.7422 4.11432 36.7745 8.99558 36.7745C13.8768 36.7745 17.8339 40.7422 17.8339 45.6366V144.154C17.8339 149.048 13.8768 153.016 8.99558 153.016C4.11432 153.016 0.157282 149.048 0.157282 144.154Z" fill="white"/>
<path d="M1.63494 140.897C3.59144 136.413 8.80262 134.368 13.2746 136.33L91.0517 170.449L91.2597 170.543C95.5865 172.574 97.5322 177.706 95.6063 182.12C93.6804 186.534 88.6006 188.585 84.1767 186.776L83.9666 186.687L6.18959 152.568C1.71759 150.606 -0.321565 145.381 1.63494 140.897Z" fill="white"/>
<path d="M32.7117 103.093L67.0235 119.76V211.964L47.874 182.12L32.7117 189.708V103.093Z" fill="#FF8400"/>
</svg>
