<svg width="530" height="212" viewBox="0 0 530 212" fill="none" xmlns="http://www.w3.org/2000/svg">
<path d="M510.314 150.13V138.563H503.145V150.13H469.585C460.462 150.13 455.737 145.405 455.737 136.282V112.496H474.472V119.013H484.41V112.496H503.145V122.271H510.314V112.496H529.049V150.13H510.314ZM455.737 153.388H474.472V156.972H510.314V153.388H529.049V186.785H472.029C461.276 186.785 455.737 181.246 455.737 170.494V153.388ZM510.314 173.345V169.598H474.472C474.554 172.286 475.694 173.345 478.545 173.345H510.314ZM484.41 137.911V130.417H474.472V135.467C474.472 136.771 475.613 137.911 476.916 137.911H484.41Z" fill="white"/>
<path d="M427.243 164.792V150.862H419.342C417.224 156.564 411.766 160.719 403.539 160.719H388.551C377.961 160.719 371.852 153.713 371.852 145.568C371.852 137.422 377.961 130.417 388.551 130.417H403.539C409.078 130.417 413.477 132.372 416.328 135.385H427.243V112.496H445.978V164.792H427.243ZM372.667 163.162H391.402V168.05C391.402 170.982 393.357 172.937 396.289 172.937H446.793V186.785H390.587C379.835 186.785 372.667 179.617 372.667 168.864V163.162ZM371.852 114.125H386.677V110.052H405.413V114.125H420.238V127.973H371.852V114.125ZM390.669 145.568C390.669 146.952 391.646 147.686 393.031 147.686H399.059C400.444 147.686 401.421 146.952 401.421 145.568C401.421 144.183 400.444 143.45 399.059 143.45H393.031C391.646 143.45 390.669 144.183 390.669 145.568Z" fill="white"/>
<path d="M279.901 170.494H335.292V112.496H354.027V186.785H279.901V170.494ZM279.901 138.318V134.082C279.901 120.642 289.513 111.682 304.013 111.682C318.512 111.682 328.124 120.642 328.124 134.082V138.318C328.124 151.759 318.512 160.719 304.013 160.719C289.513 160.719 279.901 151.759 279.901 138.318ZM304.013 144.428C307.271 144.428 309.389 142.798 309.389 139.947V132.453C309.389 129.602 307.271 127.973 304.013 127.973C300.754 127.973 298.636 129.602 298.636 132.453V139.947C298.636 142.798 300.754 144.428 304.013 144.428Z" fill="white"/>
<path d="M217.991 136.282H270.938V151.759H212.289C201.536 151.759 194.368 144.591 194.368 133.838V112.496H270.938V127.973H213.103V131.394C213.103 134.327 215.058 136.282 217.991 136.282ZM194.368 171.309V155.832H270.938V171.309H242.021V186.785H223.285V171.309H194.368Z" fill="white"/>
<path d="M109.649 170.494H138.567V159.09H127.57C116.817 159.09 109.649 151.922 109.649 141.169V112.496H186.219V159.09H157.302V170.494H186.219V186.785H109.649V170.494ZM128.384 138.726C128.384 141.658 130.339 143.613 133.272 143.613H167.484V127.973H128.384V138.726Z" fill="white"/>
<path d="M5.60072 54.3586C-2.09066 50.9331 -1.79137 39.8867 6.07414 36.885L101.104 0.618276C103.435 -0.271298 106.023 -0.19847 108.3 0.820815L202.933 43.1728C210.588 46.5992 210.309 57.5904 202.49 60.6218L108.394 97.0988C106.057 98.0047 103.457 97.9407 101.167 96.921L5.60072 54.3586Z" fill="white"/>
<path d="M0.157282 144.154V45.6366C0.157282 40.7422 4.11432 36.7745 8.99558 36.7745C13.8768 36.7745 17.8339 40.7422 17.8339 45.6366V144.154C17.8339 149.048 13.8768 153.016 8.99558 153.016C4.11432 153.016 0.157282 149.048 0.157282 144.154Z" fill="white"/>
<path d="M1.63494 140.897C3.59144 136.413 8.80262 134.368 13.2746 136.33L91.0517 170.449L91.2597 170.543C95.5865 172.574 97.5322 177.706 95.6063 182.12C93.6804 186.534 88.6006 188.585 84.1767 186.776L83.9666 186.687L6.18959 152.568C1.71759 150.606 -0.321565 145.381 1.63494 140.897Z" fill="white"/>
<path d="M32.7117 103.093L67.0235 119.76V211.964L47.874 182.12L32.7117 189.708V103.093Z" fill="#FF8400"/>
</svg>
