<svg width="533" height="106" viewBox="0 0 533 106" fill="none" xmlns="http://www.w3.org/2000/svg">
<path d="M489.026 21.0107L504.87 47.4557L520.71 21.2127L520.833 21.0107H532.699L510.365 57.3333V80.9676H499.372V57.3333L477.038 21.0107H489.026ZM509.946 80.5488V57.2155L531.95 21.4295H521.069L504.869 48.2688L488.789 21.4295H477.787L499.791 57.2155V80.5488H509.946Z" fill="white"/>
<path d="M509.946 80.5488H499.791V57.2153L477.787 21.4293H488.789L504.869 48.2688L521.069 21.4293H531.95L509.946 57.2153V80.5488Z" fill="white"/>
<path d="M472.451 30.4969V21.4295H426.63V30.4969H444.523V80.5488H454.558V30.4969H472.451ZM472.87 30.9157H454.977V80.9676H444.104V30.9157H426.211V21.0107H472.87V30.9157Z" fill="white"/>
<path d="M454.558 30.4967V80.5488H444.523V30.4967H426.63V21.4293H472.451V30.4967H454.558Z" fill="white"/>
<path d="M415.886 21.4295H405.851V80.5488H415.886V21.4295ZM416.305 80.9676H405.433V21.0107H416.305V80.9676Z" fill="white"/>
<path d="M405.851 21.4293H415.886V80.5488H405.851V21.4293Z" fill="white"/>
<path d="M389.36 21.4295H379.447V65.5573L345.111 21.4295H335.077V80.5488H345.111V37.3879L378.6 80.5488H389.36V21.4295ZM389.779 80.9676H378.395L378.269 80.8057L345.53 38.6108V80.9676H334.658V21.0107H345.316L345.442 21.1722L379.028 64.3368V21.0107H389.779V80.9676Z" fill="white"/>
<path d="M379.446 21.4293H389.36V80.5488H378.6L345.111 37.3879V80.5488H335.077V21.4293H345.111L379.446 65.5573V21.4293Z" fill="white"/>
<path d="M277.473 50.8076C277.473 44.6984 279.425 39.7217 283.33 35.8774L283.517 35.6954C287.628 31.7461 292.706 29.7713 298.751 29.7713C304.715 29.7713 309.753 31.5041 313.863 34.9698L319.182 27.3532C313.629 22.5137 306.669 20.0561 298.304 19.9804L297.904 19.9788C289.361 19.9788 282.067 22.9608 276.022 28.9251L275.744 29.202C269.965 35.0371 267.075 42.239 267.075 50.8076C267.075 59.5122 270.017 66.7663 275.901 72.5694C281.693 78.2819 288.89 81.1827 297.494 81.2719L297.904 81.2744C308.302 81.2744 316.281 78.171 321.842 71.9649V51.7749H311.929V67.9754C308.221 70.3933 303.546 71.6025 297.904 71.6025V71.1837C303.39 71.1837 307.917 70.0273 311.51 67.7451V51.356H322.261V72.1252L322.154 72.2447C316.495 78.5606 308.389 81.6932 297.904 81.6932C289.017 81.6932 281.574 78.7532 275.607 72.8676C269.639 66.9812 266.656 59.6177 266.656 50.8076C266.656 41.9958 269.68 34.5926 275.727 28.6269C281.851 22.5847 289.252 19.5599 297.904 19.5599C306.534 19.5599 313.729 22.0452 319.458 27.0375L319.742 27.2849L313.944 35.5858L313.593 35.2901C309.567 31.8951 304.628 30.1901 298.751 30.1901C292.807 30.1901 287.835 32.1278 283.808 35.9973L283.807 35.9977C279.869 39.7782 277.892 44.7017 277.891 50.8076C277.891 56.9156 279.79 61.8392 283.566 65.6179L283.931 65.9602C287.731 69.4407 292.38 71.1837 297.904 71.1837V71.6025L297.363 71.5968C291.797 71.4821 287.102 69.5898 283.276 65.9201C279.528 62.1723 277.596 57.3277 277.478 51.3863L277.473 50.8076Z" fill="white"/>
<path d="M311.929 51.7749H321.842V71.965C316.281 78.1711 308.302 81.2742 297.904 81.2742C289.119 81.2742 281.785 78.3726 275.901 72.5695C270.017 66.7664 267.075 59.5124 267.075 50.8077C267.075 42.103 270.057 34.8088 276.022 28.9251C282.067 22.9607 289.361 19.9786 297.904 19.9786C306.448 19.9786 313.541 22.4368 319.183 27.3534L313.863 34.97C309.753 31.5042 304.715 29.7714 298.751 29.7714C292.706 29.7714 287.628 31.746 283.518 35.6954C279.488 39.5642 277.473 44.6016 277.473 50.8077C277.473 57.0139 279.407 62.0513 283.276 65.9201C287.225 69.7082 292.101 71.6023 297.904 71.6023C303.546 71.6023 308.221 70.3933 311.929 67.9753V51.7749Z" fill="white"/>
<path d="M258.34 50.5658C258.34 41.9972 255.451 34.8343 249.671 29.0772L249.394 28.804C243.523 23.0122 236.246 20.0713 227.563 19.9808L227.149 19.9788C218.283 19.9788 210.868 22.9204 204.903 28.804L204.626 29.0772C198.846 34.8343 195.957 41.9972 195.957 50.5658C195.957 59.2705 198.939 66.565 204.903 72.4488C210.775 78.1611 218.051 81.062 226.734 81.1513L227.149 81.1533C235.853 81.1533 243.228 78.2114 249.273 72.3277C255.318 66.5246 258.34 59.2705 258.34 50.5658ZM247.645 50.5658C247.645 44.7067 245.67 39.7339 241.717 35.623C237.767 31.5151 232.92 29.465 227.149 29.465C221.377 29.465 216.53 31.5152 212.58 35.623C208.627 39.7339 206.652 44.7067 206.652 50.5658C206.652 56.4235 208.626 61.3955 212.577 65.5058C216.526 69.534 221.375 71.5461 227.149 71.5461V71.9649L226.6 71.9592C220.956 71.8348 216.182 69.7812 212.278 65.7991C208.248 61.6079 206.233 56.5301 206.233 50.5658C206.233 44.6016 208.248 39.5238 212.278 35.3326C216.308 31.1415 221.265 29.0461 227.149 29.0461L227.698 29.0523C233.341 29.1792 238.115 31.2725 242.019 35.3326C246.049 39.5238 248.064 44.6016 248.064 50.5658C248.064 56.5302 246.049 61.6079 242.019 65.7991C237.989 69.9096 233.032 71.9649 227.149 71.9649V71.5461C232.742 71.5461 237.467 69.6579 241.347 65.8776L241.72 65.5058C245.671 61.3955 247.645 56.4236 247.645 50.5658ZM258.759 50.5658C258.759 59.3786 255.694 66.7423 249.565 72.6275C243.439 78.59 235.959 81.5721 227.149 81.5722C218.182 81.5722 210.659 78.6334 204.611 72.749L204.609 72.7469V72.7465C198.562 66.7808 195.538 59.3776 195.538 50.5658C195.538 41.7539 198.562 34.3901 204.611 28.5042C210.659 22.5396 218.181 19.5599 227.149 19.5599C236.117 19.56 243.639 22.5396 249.686 28.5042L249.968 28.7811C255.829 34.6205 258.759 41.8917 258.759 50.5658Z" fill="white"/>
<path d="M227.149 29.046C221.265 29.046 216.308 31.1415 212.278 35.3327C208.248 39.5239 206.233 44.6016 206.233 50.5659C206.233 56.5303 208.248 61.608 212.278 65.7991C216.308 69.9097 221.265 71.965 227.149 71.965C233.032 71.965 237.989 69.9097 242.019 65.7991C246.049 61.608 248.064 56.5303 248.064 50.5659C248.064 44.6016 246.049 39.5239 242.019 35.3327C237.989 31.1415 233.032 29.046 227.149 29.046ZM227.149 81.1533C218.283 81.1533 210.868 78.2517 204.903 72.4486C198.939 66.5648 195.957 59.2706 195.957 50.5659C195.957 41.8612 198.939 34.6073 204.903 28.8042C210.868 22.9204 218.283 19.9786 227.149 19.9786C236.015 19.9786 243.43 22.9204 249.394 28.8042C255.358 34.6073 258.341 41.8612 258.341 50.5659C258.341 59.2706 255.318 66.5245 249.273 72.3277C243.228 78.2114 235.853 81.1533 227.149 81.1533Z" fill="white"/>
<path d="M144.054 50.3241C144.054 44.3598 146.069 39.4431 150.099 35.5744C154.209 31.7057 159.287 29.7713 165.332 29.7713C168.717 29.7713 171.659 30.2953 174.158 31.3431C176.656 32.3909 179.316 34.2848 182.137 37.0251L188.424 30.1341C182.314 23.4696 174.839 20.0853 165.996 19.9812L165.574 19.9788C156.386 19.9788 148.769 22.9203 142.724 28.804C136.679 34.6071 133.657 41.9417 133.657 50.8076C133.657 59.5929 136.598 66.8873 142.482 72.6905C148.353 78.3236 155.669 81.1839 164.43 81.2719L164.849 81.2744C173.876 81.2744 181.452 77.768 187.577 70.7559L181.17 64.2276C178.349 66.8068 175.689 68.6606 173.19 69.789L172.963 69.8928C170.591 70.9519 167.765 71.4814 164.486 71.4814V71.0626C167.826 71.0626 170.664 70.5059 173.013 69.4094L173.018 69.4069C175.464 68.3024 178.087 66.4785 180.887 63.9184L181.186 63.6456L188.148 70.7395L187.893 71.0315C181.69 78.1314 174.001 81.6932 164.849 81.6932C155.804 81.6932 148.241 78.7966 142.192 72.9927L142.188 72.9886C136.219 67.1015 133.238 59.6971 133.238 50.8076C133.238 41.8351 136.302 34.3892 142.434 28.5021C148.564 22.5365 156.288 19.56 165.574 19.5599C174.721 19.5599 182.448 22.9959 188.732 29.8511L188.991 30.1333L182.155 37.6268L181.845 37.3257C179.046 34.6068 176.429 32.7498 173.996 31.7292C171.559 30.7076 168.675 30.1901 165.332 30.1901C159.386 30.1901 154.413 32.0894 150.386 35.8795C146.446 39.663 144.473 44.4667 144.473 50.3241C144.473 56.1009 146.447 60.992 150.398 65.0223C154.352 69.0557 159.041 71.0626 164.486 71.0626V71.4814L163.967 71.4753C158.798 71.3549 154.302 69.4281 150.479 65.6948L150.099 65.3156C146.195 61.3335 144.182 56.5193 144.06 50.873L144.054 50.3241Z" fill="white"/>
<path d="M181.17 64.2275L187.577 70.756C181.452 77.7681 173.876 81.2742 164.849 81.2742C155.902 81.2742 148.447 78.4129 142.482 72.6904C136.599 66.8873 133.657 59.593 133.657 50.8077C133.657 41.9418 136.679 34.6073 142.724 28.8042C148.769 22.9204 156.386 19.9786 165.574 19.9786C174.601 19.9786 182.218 23.3637 188.424 30.1341L182.137 37.0253C179.316 34.2849 176.656 32.3908 174.158 31.343C171.659 30.2953 168.717 29.7714 165.332 29.7714C159.287 29.7714 154.209 31.7057 150.099 35.5745C146.069 39.4433 144.054 44.3598 144.054 50.3241C144.054 56.2079 146.069 61.205 150.099 65.3156C154.129 69.4261 158.924 71.4814 164.486 71.4814C167.871 71.4814 170.773 70.9172 173.191 69.7888C175.689 68.6604 178.349 66.8067 181.17 64.2275Z" fill="white"/>
<path d="M58.8856 49.5277C66.7182 40.6075 80.2993 39.7265 89.2196 47.5589C98.1396 55.3916 99.0219 68.9727 91.1893 77.8929C86.0914 83.6986 78.5579 86.0986 71.4598 84.9076C66.9492 85.4421 65.6052 88.6152 65.4696 90.2953C66.1084 94.1286 65.0842 98.2069 62.3202 101.355C57.4337 106.92 48.9612 107.47 43.3963 102.583C37.832 97.697 37.282 89.2253 42.1678 83.6605C44.5172 80.9849 47.6966 79.4697 50.9823 79.1595C52.6614 78.7513 55.4628 77.009 55.4696 72.6175C52.0796 65.1586 53.1287 56.084 58.8856 49.5277ZM8.89633 16.5667C15.8694 14.0727 23.5447 17.7031 26.0389 24.6761C27.2381 28.0288 27.0195 31.5435 25.6961 34.5667C25.238 36.2329 25.4014 39.528 29.2381 41.6654C37.405 42.3214 44.829 47.6433 47.7674 55.8587C51.7653 67.0363 45.945 79.3383 34.7674 83.3363C23.5901 87.3337 11.2888 81.5135 7.29087 70.3363C4.68883 63.0614 6.24523 55.3101 10.7313 49.682C12.4526 45.4799 10.3327 42.7651 8.92954 41.8304C5.26729 40.5288 2.19806 37.6534 0.78696 33.7083C-1.70701 26.7354 1.92355 19.061 8.89633 16.5667ZM30.4872 17.7142C32.5766 6.02864 43.7439 -1.75012 55.4295 0.339207C63.0351 1.69921 68.9863 6.90425 71.6385 13.5951C74.429 17.1786 77.8396 16.6879 79.3475 15.9349C82.2978 13.4053 86.3183 12.1722 90.4422 12.9095C97.7321 14.2132 102.585 21.1791 101.282 28.4691C99.9786 35.7591 93.0116 40.6122 85.7215 39.3089C82.2166 38.6822 79.2763 36.7454 77.3114 34.0941C76.0937 32.8682 73.1535 31.3714 69.3915 33.6371C64.7614 40.3965 56.4521 44.1912 47.8631 42.6556C36.1775 40.5662 28.3978 29.3999 30.4872 17.7142Z" fill="#5EB6FF"/>
</svg>
