<svg width="1564" height="311" viewBox="0 0 1564 311" fill="none" xmlns="http://www.w3.org/2000/svg">
<path fill-rule="evenodd" clip-rule="evenodd" d="M1482.03 139.306L1528.89 61.6777H1563.72L1498.16 168.302V237.68H1465.89V168.302L1400.33 61.6777H1435.52L1482.03 139.306ZM1467.12 167.957L1402.53 62.908H1402.53L1467.12 167.957Z" fill="black"/>
<path d="M1388.1 90.7545H1335.57V237.68H1303.66V90.7545H1251.13V61.6777H1388.1V90.7545Z" fill="black"/>
<path d="M1222.05 237.68H1190.14V61.6777H1222.05V237.68Z" fill="black"/>
<path fill-rule="evenodd" clip-rule="evenodd" d="M1112.63 188.861V61.6777H1144.19V237.68H1110.77L1110.4 237.204L1014.3 113.343V237.68H982.379V61.6777H1013.67L1112.63 188.861Z" fill="black"/>
<path fill-rule="evenodd" clip-rule="evenodd" d="M874.491 57.4194C899.822 57.4194 920.942 64.7148 937.759 79.3694L938.593 80.0961L921.574 104.463L920.545 103.595C908.725 93.6294 894.227 88.6237 876.975 88.6237C859.527 88.6238 844.933 94.3126 833.111 105.671L833.11 105.672C821.55 116.77 815.744 131.222 815.743 149.146C815.743 167.075 821.318 181.529 832.401 192.621L833.471 193.626C844.627 203.843 858.275 208.959 874.491 208.959C890.595 208.959 903.882 205.564 914.429 198.865V150.756H945.989V211.724L945.676 212.074C929.062 230.614 905.268 239.81 874.491 239.81C848.401 239.81 826.554 231.18 809.037 213.903C791.517 196.623 782.764 175.007 782.764 149.146C782.764 123.279 791.639 101.548 809.391 84.0356C827.367 66.2989 849.091 57.4194 874.491 57.4194ZM880.13 238.473C879.204 238.508 878.272 238.535 877.332 238.553C876.392 238.571 875.445 238.579 874.491 238.579C876.398 238.579 878.278 238.544 880.13 238.473ZM904.646 235.05C904.249 235.152 903.851 235.252 903.45 235.35C903.049 235.448 902.647 235.544 902.243 235.637L902.242 235.638C903.454 235.358 904.651 235.057 905.833 234.737L904.646 235.05ZM811.324 214.401C811.12 214.208 810.916 214.014 810.713 213.819L810.7 213.807C810.907 214.006 811.115 214.204 811.324 214.401ZM904.623 205.156C903.437 205.614 902.226 206.04 900.989 206.435C901.814 206.172 902.627 205.894 903.429 205.603C903.83 205.457 904.228 205.309 904.623 205.156ZM850.98 206.018C851.04 206.042 851.101 206.063 851.161 206.087C851.093 206.061 851.025 206.036 850.958 206.01L850.98 206.018ZM794.112 192.066C794.45 192.698 794.796 193.326 795.15 193.95L794.626 193.012C794.453 192.697 794.281 192.382 794.112 192.066ZM786.745 172.767C786.933 173.531 787.13 174.291 787.338 175.045L787.055 173.987C786.948 173.582 786.846 173.175 786.745 172.767ZM785.415 166.411C785.457 166.653 785.502 166.894 785.545 167.135C785.436 166.527 785.331 165.917 785.233 165.304L785.415 166.411ZM814.514 149.147C814.514 152.994 814.768 156.687 815.274 160.228C814.843 157.212 814.595 154.083 814.531 150.844L814.514 149.147ZM783.999 147.952C784.029 145.213 784.159 142.522 784.392 139.879C784.125 142.905 783.993 145.994 783.993 149.146L783.999 147.952ZM832.259 104.785C831.928 105.102 831.603 105.422 831.281 105.745C831.423 105.602 831.566 105.461 831.709 105.319L832.259 104.785ZM857.461 60.0911C857.306 60.1183 857.152 60.1478 856.997 60.1758C857.516 60.0818 858.037 59.9906 858.559 59.9053L857.461 60.0911Z" fill="black"/>
<path fill-rule="evenodd" clip-rule="evenodd" d="M666.79 57.4194C693.115 57.4195 715.196 66.1663 732.947 83.6749L733.774 84.4874C750.981 101.629 759.581 122.974 759.581 148.436C759.581 174.306 750.584 195.922 732.592 213.198C714.61 230.7 692.651 239.454 666.79 239.455C640.468 239.455 618.386 230.828 600.633 213.554L600.625 213.549V213.546C582.873 196.034 573.998 174.303 573.998 148.436C573.998 122.569 582.875 100.953 600.633 83.6749C618.384 66.1663 640.466 57.4194 666.79 57.4194ZM666.79 238.225C667.988 238.225 669.177 238.206 670.357 238.168C669.57 238.194 668.779 238.21 667.984 238.219C667.587 238.223 667.189 238.225 666.79 238.225C666.36 238.225 665.93 238.222 665.502 238.218C665.525 238.218 665.549 238.219 665.572 238.219L666.79 238.225ZM590 198.943C592.667 202.872 595.695 206.629 599.085 210.216C596.477 207.457 594.084 204.596 591.904 201.635C591.25 200.746 590.615 199.85 590 198.943ZM663.68 211.186C664.442 211.219 665.209 211.24 665.982 211.249L666.79 211.253L665.179 211.235C664.677 211.224 664.177 211.207 663.68 211.186ZM666.79 86.4951C649.849 86.4951 635.619 92.5131 624.024 104.572C612.421 116.639 606.623 131.237 606.623 148.436C606.623 165.631 612.418 180.227 624.015 192.292C635.608 204.117 649.841 210.023 666.79 210.023C683.21 210.023 697.079 204.48 708.47 193.383L709.565 192.292C721.162 180.227 726.956 165.632 726.956 148.436C726.956 131.237 721.159 116.639 709.556 104.572C697.961 92.5132 683.732 86.4953 666.79 86.4951ZM669.997 211.182C669.732 211.193 669.467 211.205 669.201 211.213C669.732 211.196 670.262 211.171 670.788 211.142L669.997 211.182ZM736.492 207.414C736.421 207.492 736.349 207.57 736.278 207.649C736.601 207.292 736.923 206.935 737.24 206.575L736.492 207.414ZM721.254 178.214C720.908 178.882 720.549 179.545 720.177 180.201C720.425 179.764 720.668 179.324 720.905 178.881C721.023 178.66 721.14 178.437 721.255 178.215L721.254 178.214ZM612.324 178.215C612.44 178.437 612.557 178.66 612.675 178.881C612.438 178.438 612.208 177.992 611.983 177.544L612.324 178.215ZM726.782 162.591C726.263 165.098 725.599 167.542 724.79 169.921L725.029 169.206C725.107 168.966 725.183 168.726 725.259 168.485C725.409 168.005 725.553 167.521 725.692 167.035C726.177 165.334 726.59 163.601 726.934 161.837L726.782 162.591ZM728.147 150.882C728.086 152.77 727.955 154.627 727.753 156.453L727.836 155.669C727.992 154.096 728.095 152.5 728.147 150.882ZM575.457 141.367C575.303 143.686 575.227 146.043 575.227 148.436L575.234 147.242C575.255 145.258 575.329 143.299 575.457 141.367ZM727.835 141.204C727.991 142.777 728.096 144.373 728.148 145.991C728.087 144.103 727.955 142.246 727.753 140.42L727.835 141.204ZM727.211 136.554C727.341 137.318 727.459 138.087 727.563 138.862C727.494 138.346 727.418 137.832 727.338 137.321C727.297 137.065 727.256 136.81 727.212 136.555L727.211 136.554ZM725.028 127.667C725.775 129.961 726.389 132.313 726.871 134.723C726.339 132.061 725.646 129.471 724.79 126.952L725.028 127.667ZM692.643 90.7655C693.21 91.032 693.773 91.3085 694.332 91.5945C693.567 91.203 692.794 90.8293 692.013 90.4741L692.643 90.7655ZM600.674 85.3571C600.144 85.8853 599.622 86.4174 599.109 86.9536C599.883 86.145 600.677 85.3459 601.489 84.5556L601.49 84.5545L600.674 85.3571ZM732.091 84.5556C732.676 85.1252 733.251 85.7004 733.817 86.2796C733.515 85.9709 733.211 85.6631 732.904 85.3571L732.091 84.5556ZM661.22 85.4858C660.699 85.5278 660.181 85.5757 659.665 85.6298C659.407 85.6568 659.15 85.6855 658.893 85.7156C658.38 85.7756 657.869 85.8425 657.361 85.9146C658.631 85.7343 659.917 85.5909 661.22 85.4858ZM668.401 85.2835C668.871 85.294 669.339 85.3098 669.805 85.3296C669.074 85.2985 668.338 85.2786 667.597 85.2703L666.79 85.2659L668.401 85.2835Z" fill="black"/>
<path fill-rule="evenodd" clip-rule="evenodd" d="M486.038 57.4194C512.888 57.4194 535.574 67.5057 554.02 87.6287L554.78 88.4566L534.712 110.454L533.802 109.57C525.586 101.589 517.905 96.1385 510.761 93.1425C503.61 90.1436 495.142 88.6237 485.329 88.6237C467.874 88.6237 453.277 94.1992 441.455 105.325C429.891 116.431 424.097 130.532 424.097 147.726C424.097 164.684 429.891 179.042 441.49 190.873C453.097 202.713 466.862 208.604 482.844 208.604C492.648 208.604 500.98 206.97 507.877 203.751L507.892 203.744C515.071 200.501 522.771 195.148 530.99 187.633L531.867 186.831L552.304 207.655L551.555 208.513C533.349 229.354 510.776 239.81 483.91 239.81C457.359 239.81 435.159 231.307 417.402 214.27L417.39 214.258C399.869 196.976 391.117 175.24 391.117 149.146C391.117 122.807 400.111 100.951 418.112 83.6694C436.107 66.1574 458.781 57.4195 486.038 57.4194ZM487.607 238.512C486.792 238.543 485.972 238.562 485.149 238.572C484.737 238.577 484.324 238.579 483.91 238.579C485.566 238.579 487.205 238.54 488.828 238.46L487.607 238.512ZM419.192 214.27C419.154 214.234 419.116 214.199 419.078 214.163L419.065 214.151C419.107 214.191 419.15 214.23 419.192 214.27ZM508.396 204.865L507.728 205.17C507.409 205.312 507.086 205.45 506.761 205.586C507.314 205.355 507.859 205.116 508.396 204.865ZM512.572 202.777C512.365 202.89 512.159 203.001 511.953 203.111C512.393 202.877 512.835 202.635 513.278 202.386L512.572 202.777ZM440.612 191.734C441.64 192.782 442.685 193.784 443.747 194.741C443.067 194.128 442.393 193.497 441.727 192.847L440.612 191.734ZM397.305 180.481C397.423 180.824 397.543 181.166 397.665 181.507L397.667 181.508C397.544 181.166 397.423 180.824 397.305 180.481ZM394.876 172.041C394.96 172.401 395.047 172.761 395.136 173.119C394.958 172.402 394.79 171.682 394.63 170.957L394.876 172.041ZM392.509 143.128C392.401 145.107 392.346 147.112 392.346 149.146C392.346 154.75 392.755 160.149 393.571 165.34C393.342 163.881 393.144 162.406 392.979 160.914C392.895 160.151 392.819 159.384 392.752 158.612C392.482 155.525 392.347 152.37 392.347 149.147C392.347 147.114 392.401 145.106 392.509 143.128ZM422.868 147.727C422.868 148.202 422.873 148.675 422.882 149.146L422.868 147.727ZM396.09 121.764C395.154 124.95 394.393 128.224 393.808 131.588C393.938 130.84 394.078 130.097 394.225 129.358C394.299 128.989 394.374 128.621 394.452 128.254C394.92 126.051 395.466 123.888 396.09 121.764ZM398.195 115.511C397.936 116.193 397.684 116.878 397.441 117.569L397.812 116.537C397.937 116.194 398.065 115.852 398.195 115.511ZM400.306 110.481C400.155 110.811 400.006 111.142 399.859 111.474L400.306 110.481C400.458 110.152 400.612 109.823 400.768 109.495L400.306 110.481ZM404.361 102.776C404.175 103.088 403.991 103.402 403.809 103.716L404.361 102.776C404.548 102.464 404.737 102.153 404.928 101.843L404.361 102.776ZM413.459 90.3059C411.237 92.8398 409.19 95.4631 407.319 98.1749C409.398 95.1618 411.694 92.2583 414.207 89.4648L413.459 90.3059ZM511.236 92.009C512.382 92.4895 513.539 93.0301 514.708 93.6318C514.474 93.5114 514.242 93.3934 514.009 93.2778C513.543 93.0467 513.079 92.8253 512.617 92.6137C512.386 92.5079 512.156 92.4046 511.926 92.3036C511.695 92.2027 511.465 92.1051 511.236 92.009ZM427.619 77.0913C424.621 79.3681 421.736 81.856 418.963 84.5545C419.795 83.7449 420.638 82.9557 421.49 82.184C421.774 81.9268 422.059 81.6718 422.345 81.4188C423.777 80.1538 425.236 78.9413 426.724 77.7817C427.021 77.5498 427.32 77.3201 427.62 77.0924L427.619 77.0913ZM488.067 87.4341C488.68 87.4521 489.288 87.4773 489.891 87.5077C489.593 87.4927 489.295 87.4791 488.995 87.467C488.687 87.4547 488.377 87.4432 488.067 87.4341ZM438.898 69.805C435.957 71.3988 433.107 73.1647 430.349 75.1001C431.575 74.2401 432.818 73.4134 434.08 72.6208C434.396 72.4224 434.713 72.2267 435.031 72.0325C436.62 71.0628 438.237 70.1449 439.882 69.2806L438.898 69.805ZM479.801 58.8069C477.75 58.9123 475.728 59.07 473.734 59.2808C476.127 59.0278 478.561 58.8509 481.036 58.7497L479.801 58.8069ZM484.778 58.6552C483.94 58.6636 483.105 58.6805 482.276 58.7058L483.524 58.6739C483.941 58.6654 484.359 58.6594 484.778 58.6552Z" fill="black"/>
<path d="M172.86 145.389C195.852 119.204 235.718 116.617 261.903 139.609C288.088 162.601 290.677 202.468 267.684 228.653C252.715 245.7 230.595 252.746 209.754 249.244C196.561 250.814 192.595 260.081 192.179 265.021C194.069 276.286 191.065 288.275 182.941 297.527C168.597 313.862 143.728 315.477 127.392 301.133C111.057 286.789 109.441 261.919 123.785 245.583C130.682 237.728 140.014 233.28 149.66 232.37C154.589 231.17 162.812 226.058 162.832 213.169C152.88 191.274 155.96 164.636 172.86 145.389ZM26.1177 48.6323C46.587 41.3112 69.1155 51.9687 76.437 72.438C79.957 82.2792 79.3183 92.5957 75.4341 101.47C74.0888 106.36 74.5641 116.035 85.8257 122.31C109.8 124.235 131.597 139.855 140.223 163.972C151.959 196.784 134.873 232.896 102.062 244.632C69.2506 256.368 33.1386 239.282 21.4028 206.471C13.7626 185.11 18.3373 162.351 31.5141 145.829C36.5439 133.533 30.3678 125.567 26.2505 122.805C15.4836 118.991 6.45697 110.546 2.31004 98.9516C-5.01133 78.4822 5.64819 55.9537 26.1177 48.6323ZM89.4956 52.0024C95.6288 17.6996 128.41 -5.13733 162.712 0.995575C185.043 4.98832 202.514 20.2748 210.297 39.9214C218.465 50.402 228.447 49.0042 232.891 46.8051C241.554 39.3605 253.371 35.7288 265.492 37.896C286.891 41.7223 301.138 62.1719 297.312 83.5717C293.486 104.972 273.036 119.219 251.636 115.393C241.347 113.553 232.713 107.869 226.945 100.085C223.37 96.4866 214.74 92.0898 203.696 98.7417C190.104 118.584 165.714 129.726 140.501 125.218C106.199 119.085 83.3627 86.3051 89.4956 52.0024Z" fill="#5EB6FF"/>
</svg>
