<svg width="103" height="94" viewBox="0 0 103 94" fill="none" xmlns="http://www.w3.org/2000/svg">
<path d="M51.4922 4V89.4867" stroke="black" stroke-width="8" stroke-linecap="round" stroke-linejoin="round"/>
<path d="M84.738 27.7458L98.9858 65.7399C94.8754 68.8227 89.876 70.4892 84.738 70.4892C79.6 70.4892 74.6006 68.8227 70.4902 65.7399L84.738 27.7458ZM84.738 27.7458V22.9966Z" fill="#58D400"/>
<path d="M84.738 27.7458L98.9858 65.7399C94.8754 68.8227 89.876 70.4892 84.738 70.4892C79.6 70.4892 74.6006 68.8227 70.4902 65.7399L84.738 27.7458ZM84.738 27.7458V22.9966" stroke="black" stroke-width="8" stroke-linecap="round" stroke-linejoin="round"/>
<path d="M8.75098 22.9961H13.5002C26.7525 22.9961 39.8011 19.7339 51.4943 13.4976C63.1875 19.7339 76.2361 22.9961 89.4884 22.9961H94.2377" stroke="black" stroke-width="8" stroke-linecap="round" stroke-linejoin="round"/>
<path d="M18.2478 27.7458L32.4956 65.7399C28.3852 68.8227 23.3858 70.4892 18.2478 70.4892C13.1098 70.4892 8.11039 68.8227 4 65.7399L18.2478 27.7458ZM18.2478 27.7458V22.9966Z" fill="#58D400"/>
<path d="M18.2478 27.7458L32.4956 65.7399C28.3852 68.8227 23.3858 70.4892 18.2478 70.4892C13.1098 70.4892 8.11039 68.8227 4 65.7399L18.2478 27.7458ZM18.2478 27.7458V22.9966" stroke="black" stroke-width="8" stroke-linecap="round" stroke-linejoin="round"/>
<path d="M27.7461 89.4858H75.2387" stroke="black" stroke-width="8" stroke-linecap="round" stroke-linejoin="round"/>
</svg>
