<svg width="103" height="103" viewBox="0 0 103 103" fill="none" xmlns="http://www.w3.org/2000/svg">
<rect x="37.0771" y="31.6826" width="33.0769" height="51.9779" transform="rotate(-45 37.0771 31.6826)" fill="#FF8400"/>
<path d="M61.0062 56.2413L21.2027 96.0401C20.2671 96.976 19.1564 97.7184 17.934 98.225C16.7116 98.7315 15.4013 98.9924 14.0781 98.9926C11.4056 98.9931 8.8425 97.9319 6.95249 96.0425C5.06249 94.1531 4.00045 91.5903 4 88.9179C3.99955 86.2455 5.06074 83.6823 6.95012 81.7923L46.7679 41.9888" stroke="black" stroke-width="8" stroke-linecap="round" stroke-linejoin="round"/>
<path d="M70.5049 70.4892L99.0005 41.9937" stroke="black" stroke-width="8" stroke-linecap="round" stroke-linejoin="round"/>
<path d="M96.6249 44.3681L58.6309 6.37402" stroke="black" stroke-width="8" stroke-linecap="round" stroke-linejoin="round"/>
<path d="M32.5088 32.4956L61.0044 4" stroke="black" stroke-width="8" stroke-linecap="round" stroke-linejoin="round"/>
<path d="M34.8848 30.1206L72.8789 68.1147" stroke="black" stroke-width="8" stroke-linecap="round" stroke-linejoin="round"/>
</svg>
