<svg width="99" height="99" viewBox="0 0 99 99" fill="none" xmlns="http://www.w3.org/2000/svg">
<path d="M46.7434 8.73242H13.4985C10.9794 8.73242 8.56337 9.73316 6.78205 11.5145C5.00073 13.2958 4 15.7118 4 18.2309V84.7206C4 87.2398 5.00073 89.6558 6.78205 91.4371C8.56337 93.2184 10.9794 94.2191 13.4985 94.2191H79.9882C82.5073 94.2191 84.9233 93.2184 86.7047 91.4371C88.486 89.6558 89.4867 87.2398 89.4867 84.7206V51.4758" stroke="black" stroke-width="8" stroke-linecap="round" stroke-linejoin="round"/>
<path d="M77.0211 6.95081C78.9105 5.06144 81.473 4 84.145 4C86.817 4 89.3795 5.06144 91.2689 6.95081C93.1583 8.84019 94.2197 11.4027 94.2197 14.0747C94.2197 16.7467 93.1583 19.3092 91.2689 21.1986L48.4638 64.0084C47.3361 65.1352 45.9429 65.96 44.4127 66.4068L30.768 70.3962C30.3594 70.5154 29.9262 70.5225 29.5138 70.4169C29.1014 70.3112 28.725 70.0967 28.424 69.7957C28.123 69.4947 27.9085 69.1183 27.8028 68.7059C27.6972 68.2935 27.7043 67.8603 27.8235 67.4517L31.8129 53.807C32.2618 52.278 33.0882 50.8865 34.216 49.7607L77.0211 6.95081Z" fill="#FF8400" stroke="black" stroke-width="8" stroke-linecap="round" stroke-linejoin="round"/>
</svg>
