<svg width="164" height="200" viewBox="0 0 164 200" fill="none" xmlns="http://www.w3.org/2000/svg">
<path d="M6.55762 171.312L38.3679 104.919L85.2461 128.752L56.7843 193.443L38.3679 162.8L6.55762 171.312Z" fill="#00BBFF"/>
<path d="M91.8032 125.517L58.5105 200L37.5082 165.603L0 175.482L37.5393 98.3613L91.8032 125.517ZM13.1183 164.703L40.8006 157.412L57.5395 184.828L82.5751 128.817L40.769 107.896L13.1183 164.703Z" fill="#2D2D2D"/>
<path d="M78.4499 146.731L28.8131 124.213L18.8857 144.552C48.3288 140.097 64.3256 160.371 68.7647 169.249L78.4499 146.731Z" fill="#185F79"/>
<path d="M91.8032 125.517L58.5105 200L37.5082 165.603L0 175.482L37.5393 98.3613L91.8032 125.517ZM13.1183 164.703L40.8006 157.412L57.5395 184.828L82.5751 128.817L40.769 107.896L13.1183 164.703Z" fill="#2D2D2D"/>
<path d="M157.377 171.312L125.567 104.919L78.6885 128.752L107.15 193.443L125.567 162.8L157.377 171.312Z" fill="#00BBFF"/>
<path d="M85.7142 146.973L135.351 124.455L145.278 144.794C115.835 140.339 99.8385 160.613 95.3994 169.491L85.7142 146.973Z" fill="#185F79"/>
<path d="M72.1313 125.517L105.424 200L126.426 165.603L163.935 175.482L126.395 98.3613L72.1313 125.517ZM150.816 164.703L123.134 157.412L106.395 184.828L81.3595 128.817L123.166 107.896L150.816 164.703Z" fill="#2D2D2D"/>
<path d="M157.377 75.4095C157.377 117.057 123.615 150.819 81.9674 150.819C40.3197 150.819 6.55762 117.057 6.55762 75.4095C6.55762 33.762 40.3197 0 81.9674 0C123.615 0 157.377 33.762 157.377 75.4095Z" fill="#C57219"/>
<path d="M150.308 75.4095C150.308 37.6664 119.711 7.06953 81.9674 7.06947C44.2242 7.06947 13.6271 37.6664 13.6271 75.4095C13.6272 113.153 44.2242 143.75 81.9674 143.75V150.819L80.9925 150.813C40.1185 150.295 7.0817 117.258 6.56403 76.3839L6.55762 75.4095C6.55762 33.762 40.3198 0 81.9674 0L82.9418 0.00641065C124.14 0.52819 157.377 34.0874 157.377 75.4095L157.371 76.3839C156.849 117.582 123.29 150.819 81.9674 150.819V143.75C119.711 143.749 150.308 113.152 150.308 75.4095Z" fill="#2D2D2D"/>
<path d="M134.425 75.4099C134.425 104.382 110.205 127.869 80.3268 127.869C50.4492 127.869 26.2285 104.382 26.2285 75.4099C26.2285 46.4378 50.4492 22.9512 80.3268 22.9512C110.205 22.9512 134.425 46.4378 134.425 75.4099Z" fill="#7B5325"/>
<path d="M127.452 75.4099C127.452 50.1724 106.353 29.7133 80.3268 29.7133C54.3005 29.7133 33.202 50.1724 33.202 75.4099C33.202 100.648 54.3005 121.107 80.3268 121.107V127.869C50.4492 127.869 26.2285 104.382 26.2285 75.4099C26.2285 46.4378 50.4492 22.9512 80.3268 22.9512C110.205 22.9512 134.425 46.4378 134.425 75.4099C134.425 104.382 110.205 127.869 80.3268 127.869V121.107C106.353 121.107 127.452 100.648 127.452 75.4099Z" fill="#2D2D2D"/>
<path d="M117.655 55.0952C129.179 75.0546 122.34 100.577 102.381 112.1C82.4211 123.624 56.899 116.785 45.3754 96.8257C33.8518 76.8663 47.5307 62.4596 67.4902 50.936C87.4497 39.4124 106.131 35.1358 117.655 55.0952Z" fill="#A76723"/>
</svg>
