<svg width="164" height="200" viewBox="0 0 164 200" fill="none" xmlns="http://www.w3.org/2000/svg">
<path d="M6.55811 171.312L38.3683 104.919L85.2464 128.752L56.7847 193.443L38.3683 162.8L6.55811 171.312Z" fill="#00BBFF"/>
<path d="M91.803 125.517L58.5103 200L37.5081 165.603L0 175.482L37.5392 98.3613L91.803 125.517ZM13.1182 164.703L40.8005 157.412L57.5394 184.828L82.5749 128.817L40.7689 107.896L13.1182 164.703Z" fill="#2D2D2D"/>
<path d="M78.4502 146.731L28.8136 124.213L18.8862 144.552C48.3293 140.097 64.326 160.371 68.765 169.249L78.4502 146.731Z" fill="#185F79"/>
<path d="M91.803 125.517L58.5103 200L37.5081 165.603L0 175.482L37.5392 98.3613L91.803 125.517ZM13.1182 164.703L40.8005 157.412L57.5394 184.828L82.5749 128.817L40.7689 107.896L13.1182 164.703Z" fill="#2D2D2D"/>
<path d="M157.376 171.312L125.566 104.919L78.6882 128.752L107.15 193.443L125.566 162.8L157.376 171.312Z" fill="#00BBFF"/>
<path d="M85.7143 146.973L135.351 124.455L145.278 144.794C115.835 140.339 99.8386 160.613 95.3995 169.491L85.7143 146.973Z" fill="#185F79"/>
<path d="M72.1316 125.517L105.424 200L126.426 165.603L163.935 175.482L126.395 98.3613L72.1316 125.517ZM150.816 164.703L123.134 157.412L106.395 184.828L81.3596 128.817L123.166 107.896L150.816 164.703Z" fill="#2D2D2D"/>
<path d="M157.377 75.4095C157.377 117.057 123.615 150.819 81.9677 150.819C40.3201 150.819 6.55811 117.057 6.55811 75.4095C6.55811 33.762 40.3201 0 81.9677 0C123.615 0 157.377 33.762 157.377 75.4095Z" fill="#BDBDBD"/>
<path d="M150.308 75.4095C150.308 37.6664 119.711 7.06953 81.9677 7.06947C44.2246 7.06947 13.6276 37.6664 13.6276 75.4095C13.6277 113.153 44.2246 143.75 81.9677 143.75V150.819L80.9928 150.813C40.1189 150.295 7.08219 117.258 6.56452 76.3839L6.55811 75.4095C6.55811 33.762 40.3202 0 81.9677 0L82.9422 0.00641065C124.141 0.52819 157.377 34.0874 157.377 75.4095L157.371 76.3839C156.849 117.582 123.29 150.819 81.9677 150.819V143.75C119.711 143.749 150.308 113.152 150.308 75.4095Z" fill="#2D2D2D"/>
<path d="M134.424 75.4099C134.424 104.382 110.204 127.869 80.3262 127.869C50.4486 127.869 26.228 104.382 26.228 75.4099C26.228 46.4378 50.4486 22.9512 80.3262 22.9512C110.204 22.9512 134.424 46.4378 134.424 75.4099Z" fill="#646464"/>
<path d="M127.451 75.4099C127.451 50.1724 106.353 29.7133 80.3262 29.7133C54.3 29.7133 33.2015 50.1724 33.2015 75.4099C33.2015 100.648 54.2999 121.107 80.3262 121.107V127.869C50.4486 127.869 26.228 104.382 26.228 75.4099C26.2281 46.4378 50.4486 22.9512 80.3262 22.9512C110.204 22.9512 134.424 46.4378 134.424 75.4099C134.424 104.382 110.204 127.869 80.3262 127.869V121.107C106.353 121.107 127.451 100.648 127.451 75.4099Z" fill="#2D2D2D"/>
<path d="M117.655 55.0952C129.178 75.0546 122.34 100.577 102.38 112.1C82.421 123.624 56.899 116.785 45.3754 96.8257C33.8518 76.8663 47.5307 62.4596 67.4901 50.936C87.4496 39.4124 106.131 35.1358 117.655 55.0952Z" fill="#9C9797"/>
</svg>
